<?xml version="1.0"?>

<!DOCTYPE svg PUBLIC '-//W3C//DTD SVG 1.0//EN' 'http://www.w3.org/TR/2001/REC-SVG-20010904/DTD/svg10.dtd'>
<svg fill-opacity="1" xmlns:xlink="http://www.w3.org/1999/xlink" color-rendering="auto" color-interpolation="auto" stroke="black" text-rendering="auto" stroke-linecap="square" stroke-miterlimit="10" stroke-opacity="1" shape-rendering="auto" fill="black" stroke-dasharray="none" font-weight="normal" stroke-width="1" xmlns="http://www.w3.org/2000/svg" font-family="&apos;Dialog&apos;" font-style="normal" stroke-linejoin="miter" font-size="12" stroke-dashoffset="0" image-rendering="auto">
  <!--Unicode Character 'CREDIT CARD' (U+1F4B3)-->
  <defs id="genericDefs" />
  <g>
    <g>
      <path d="M274.2188 288.1406 Q274.2188 293.7656 268.3125 299.9531 Q262.4062 306.1406 256.9219 306.1406 L28.8281 306.1406 Q23.0625 306.1406 17.2969 299.9531 Q11.5312 293.7656 11.5312 288 L11.5312 153.7031 Q11.5312 147.6562 17.5781 141.6094 Q23.625 135.5625 29.6719 135.5625 L256.0781 135.5625 Q261.9844 135.5625 268.1016 141.6094 Q274.2188 147.6562 274.2188 153.5625 L274.2188 288.1406 ZM263.1094 158.4844 L263.1094 152.2969 Q263.1094 150.3281 260.2266 147.6562 Q257.3438 144.9844 255.2344 144.9844 L30.9375 144.9844 Q28.6875 144.9844 25.6641 147.6562 Q22.6406 150.3281 22.6406 152.4375 L22.6406 158.4844 L263.1094 158.4844 ZM263.1094 286.875 L263.1094 191.5312 L22.6406 191.5312 L22.6406 285.8906 Q22.6406 287.8594 25.3828 290.8828 Q28.125 293.9062 30.0938 293.9062 L255.6562 293.9062 Q257.2031 293.9062 260.1562 291.1641 Q263.1094 288.4219 263.1094 286.875 ZM256.7812 151.5938 L249.1875 156.7969 L249.1875 146.6719 Q251.2969 147.9375 256.7812 151.5938 ZM245.6719 151.5938 Q241.4531 154.125 238.0781 156.375 L238.0781 146.6719 Q240.1875 147.9375 245.6719 151.5938 ZM255.9375 286.4531 L203.4844 286.4531 L203.4844 243.1406 L255.9375 243.1406 L255.9375 286.4531 ZM255.9375 234.8438 L29.8125 234.8438 L29.8125 200.9531 L255.9375 200.9531 L255.9375 234.8438 ZM252 283.0781 L252 246.9375 L207.1406 246.9375 L207.1406 283.0781 L252 283.0781 ZM252 231.0469 L252 204.75 L33.75 204.75 L33.75 231.0469 L252 231.0469 ZM191.1094 223.5938 Q189.9844 224.7188 187.875 224.7188 Q187.1719 224.7188 185.9766 224.2969 Q184.7812 223.875 184.0781 223.875 Q182.25 223.875 178.3125 225.3516 Q174.375 226.8281 172.5469 226.8281 Q171.2812 226.8281 169.3125 225.8438 Q169.4531 224.2969 169.7344 221.2031 L169.5938 220.9219 Q165.375 220.9219 159.6094 223.875 Q153.8438 226.8281 148.3594 226.8281 Q146.3906 226.8281 143.7188 225.7734 Q141.0469 224.7188 140.9062 224.7188 Q139.3594 224.7188 135.2812 224.4375 Q131.7656 224.2969 129.6562 224.2969 Q129.6562 224.2969 127.125 225.7734 Q124.5938 227.25 122.625 227.25 Q119.3906 227.25 118.4062 224.0859 Q117.4219 220.9219 114.3281 220.9219 Q110.5312 220.9219 106.7344 223.3125 Q101.25 226.8281 99.9844 227.25 L96.75 226.6875 Q101.3906 223.5938 109.125 218.1094 Q108.9844 217.9688 108.8438 217.8281 Q103.6406 217.8281 97.3125 222.3281 Q90.9844 226.8281 87.4688 226.8281 Q87.3281 226.4062 87.3281 225.9844 Q87.3281 224.7188 87.8906 223.7344 Q73.2656 225.5625 76.3594 225.5625 Q73.4062 225.5625 72.4219 223.7344 Q72.7031 222.1875 75.9375 220.0078 Q79.1719 217.8281 80.8594 217.8281 Q82.2656 217.8281 83.1094 219.375 Q83.1094 220.9219 81.7031 220.9219 Q81.2812 220.9219 80.5781 220.5 Q79.875 220.0781 79.4531 220.0781 Q78.3281 220.0781 75.5156 222.8906 Q76.0781 223.875 77.625 223.875 Q79.875 223.875 86.625 221.0625 Q88.1719 220.6406 90.9844 219.5156 Q91.9688 218.9531 98.2969 212.4844 Q103.7812 206.8594 106.0312 206.8594 L108.7031 206.8594 Q109.125 208.9688 109.125 208.2656 Q109.125 211.0781 102.2344 215.7188 Q97.3125 218.8125 92.5312 221.9062 L92.9531 222.0469 Q97.0312 220.0781 100.9688 218.1094 Q106.0312 215.7188 109.4062 215.7188 Q110.3906 215.7188 111.6562 216.2812 Q111.7969 216.5625 111.7969 216.8438 Q111.7969 217.2656 111.5859 218.0391 Q111.375 218.8125 111.375 219.2344 L111.7969 219.6562 Q112.2188 219.6562 113.0625 219.4453 Q113.9062 219.2344 114.3281 219.2344 Q117.9844 219.2344 119.9531 222.1875 Q121.9219 225.1406 123.6094 225.1406 Q125.5781 225.1406 129.2344 220.6406 Q129.2344 220.5 127.9688 219.5156 L127.9688 216.7031 Q128.5312 215.2969 130.0781 215.2969 Q132.6094 215.2969 132.6094 217.8281 Q132.6094 219.9375 130.5 222.75 Q134.0156 223.4531 136.6875 223.4531 Q137.3906 223.4531 138.7969 223.1719 Q140.2031 222.8906 140.9062 222.8906 L141.4688 222.3281 Q142.1719 217.9688 146.7422 213.8906 Q151.3125 209.8125 155.6719 209.8125 Q161.5781 209.8125 161.5781 214.4531 Q161.5781 217.2656 154.5469 220.3594 Q149.7656 222.3281 144.9844 224.1562 Q145.5469 224.8594 147.2344 224.8594 Q151.3125 224.8594 158.2734 222.0469 Q165.2344 219.2344 169.1719 219.2344 Q172.6875 219.2344 172.6875 221.2031 Q172.6875 222.1875 171.8438 224.4375 Q172.125 224.7188 172.9688 224.7188 Q174.7969 224.7188 178.4531 223.2422 Q182.1094 221.7656 183.7969 221.7656 Q184.0781 221.7656 185.8359 222.5391 Q187.5938 223.3125 189.9844 223.3125 Q190.6875 223.4531 191.1094 223.5938 ZM158.625 214.4531 Q158.625 211.5 156.0938 211.5 Q154.125 211.5 149.1328 215.1562 Q144.1406 218.8125 144.1406 220.7812 L144.1406 222.0469 Q158.625 218.8125 158.625 214.4531 ZM105.8906 210.2344 L105.4688 209.6719 L101.3906 212.7656 L101.8125 213.3281 L105.8906 210.2344 Z" stroke="none" />
    </g>
  </g>
</svg>
